<mxfile host="app.diagrams.net" modified="2023-10-17T15:24:50.731Z" agent="Mozilla/5.0 (X11; Linux x86_64; rv:109.0) Gecko/20100101 Firefox/114.0" etag="RcGflS2gaY6LiC3qS60M" version="22.0.4" type="github">
  <diagram name="Página-1" id="-NdraGJS-0DFVX8-Y1tH">
    <mxGraphModel dx="2261" dy="795" grid="1" gridSize="10" guides="1" tooltips="1" connect="1" arrows="1" fold="1" page="1" pageScale="1" pageWidth="827" pageHeight="1169" math="0" shadow="0">
      <root>
        <mxCell id="0" />
        <mxCell id="1" parent="0" />
        <mxCell id="DlKNlpENbQ6iREXl7qAN-9" style="edgeStyle=orthogonalEdgeStyle;rounded=0;orthogonalLoop=1;jettySize=auto;html=1;entryX=0;entryY=0.5;entryDx=0;entryDy=0;endArrow=none;endFill=0;" parent="1" source="DlKNlpENbQ6iREXl7qAN-1" target="DlKNlpENbQ6iREXl7qAN-6" edge="1">
          <mxGeometry relative="1" as="geometry" />
        </mxCell>
        <mxCell id="DlKNlpENbQ6iREXl7qAN-1" value="Personaje" style="whiteSpace=wrap;html=1;align=center;fillColor=#ffe6cc;strokeColor=#d79b00;" parent="1" vertex="1">
          <mxGeometry x="349" y="570" width="100" height="40" as="geometry" />
        </mxCell>
        <mxCell id="DlKNlpENbQ6iREXl7qAN-3" value="Película" style="whiteSpace=wrap;html=1;align=center;fillColor=#ffe6cc;strokeColor=#d79b00;" parent="1" vertex="1">
          <mxGeometry x="859" y="570" width="100" height="40" as="geometry" />
        </mxCell>
        <mxCell id="DlKNlpENbQ6iREXl7qAN-7" style="edgeStyle=orthogonalEdgeStyle;rounded=0;orthogonalLoop=1;jettySize=auto;html=1;entryX=0;entryY=0.5;entryDx=0;entryDy=0;endArrow=none;endFill=0;" parent="1" source="DlKNlpENbQ6iREXl7qAN-4" target="DlKNlpENbQ6iREXl7qAN-5" edge="1">
          <mxGeometry relative="1" as="geometry" />
        </mxCell>
        <mxCell id="DlKNlpENbQ6iREXl7qAN-4" value="Actor" style="whiteSpace=wrap;html=1;align=center;fillColor=#ffe6cc;strokeColor=#d79b00;" parent="1" vertex="1">
          <mxGeometry x="-131" y="570" width="100" height="40" as="geometry" />
        </mxCell>
        <mxCell id="DlKNlpENbQ6iREXl7qAN-8" style="edgeStyle=orthogonalEdgeStyle;rounded=0;orthogonalLoop=1;jettySize=auto;html=1;entryX=0;entryY=0.5;entryDx=0;entryDy=0;endArrow=none;endFill=0;" parent="1" source="DlKNlpENbQ6iREXl7qAN-5" target="DlKNlpENbQ6iREXl7qAN-1" edge="1">
          <mxGeometry relative="1" as="geometry" />
        </mxCell>
        <mxCell id="DlKNlpENbQ6iREXl7qAN-5" value="Interpreta" style="shape=rhombus;perimeter=rhombusPerimeter;whiteSpace=wrap;html=1;align=center;fillColor=#dae8fc;strokeColor=#6c8ebf;" parent="1" vertex="1">
          <mxGeometry x="99" y="560" width="120" height="60" as="geometry" />
        </mxCell>
        <mxCell id="DlKNlpENbQ6iREXl7qAN-10" style="edgeStyle=orthogonalEdgeStyle;rounded=0;orthogonalLoop=1;jettySize=auto;html=1;entryX=0;entryY=0.5;entryDx=0;entryDy=0;endArrow=none;endFill=0;" parent="1" source="DlKNlpENbQ6iREXl7qAN-6" target="DlKNlpENbQ6iREXl7qAN-3" edge="1">
          <mxGeometry relative="1" as="geometry" />
        </mxCell>
        <mxCell id="DlKNlpENbQ6iREXl7qAN-6" value="Aparece" style="shape=rhombus;perimeter=rhombusPerimeter;whiteSpace=wrap;html=1;align=center;fillColor=#dae8fc;strokeColor=#6c8ebf;" parent="1" vertex="1">
          <mxGeometry x="599" y="560" width="120" height="60" as="geometry" />
        </mxCell>
        <mxCell id="DlKNlpENbQ6iREXl7qAN-15" style="edgeStyle=orthogonalEdgeStyle;rounded=0;orthogonalLoop=1;jettySize=auto;html=1;exitX=0.764;exitY=0.402;exitDx=0;exitDy=0;exitPerimeter=0;entryX=0.5;entryY=1;entryDx=0;entryDy=0;endArrow=none;endFill=0;" parent="1" source="y-hyt4ERYZjtCRCO4iPL-5" target="DlKNlpENbQ6iREXl7qAN-14" edge="1">
          <mxGeometry relative="1" as="geometry">
            <mxPoint x="369.49999999999955" y="390" as="sourcePoint" />
          </mxGeometry>
        </mxCell>
        <mxCell id="DlKNlpENbQ6iREXl7qAN-17" style="edgeStyle=orthogonalEdgeStyle;rounded=0;orthogonalLoop=1;jettySize=auto;html=1;exitX=0.5;exitY=1;exitDx=0;exitDy=0;exitPerimeter=0;entryX=0.5;entryY=1;entryDx=0;entryDy=0;endArrow=none;endFill=0;" parent="1" target="DlKNlpENbQ6iREXl7qAN-16" edge="1">
          <mxGeometry relative="1" as="geometry">
            <mxPoint x="398.99999999999955" y="390" as="sourcePoint" />
          </mxGeometry>
        </mxCell>
        <mxCell id="DlKNlpENbQ6iREXl7qAN-19" style="edgeStyle=orthogonalEdgeStyle;rounded=0;orthogonalLoop=1;jettySize=auto;html=1;exitX=0.764;exitY=0.626;exitDx=0;exitDy=0;exitPerimeter=0;entryX=0.5;entryY=1;entryDx=0;entryDy=0;endArrow=none;endFill=0;" parent="1" source="y-hyt4ERYZjtCRCO4iPL-5" target="DlKNlpENbQ6iREXl7qAN-18" edge="1">
          <mxGeometry relative="1" as="geometry">
            <mxPoint x="428.49999999999955" y="390" as="sourcePoint" />
          </mxGeometry>
        </mxCell>
        <mxCell id="DlKNlpENbQ6iREXl7qAN-12" style="edgeStyle=orthogonalEdgeStyle;rounded=0;orthogonalLoop=1;jettySize=auto;html=1;entryX=0;entryY=0;entryDx=29.5;entryDy=0;entryPerimeter=0;endArrow=none;endFill=0;" parent="1" source="DlKNlpENbQ6iREXl7qAN-1" edge="1">
          <mxGeometry relative="1" as="geometry">
            <mxPoint x="398.99999999999955" y="420" as="targetPoint" />
          </mxGeometry>
        </mxCell>
        <mxCell id="DlKNlpENbQ6iREXl7qAN-13" value="" style="ellipse;whiteSpace=wrap;html=1;aspect=fixed;" parent="1" vertex="1">
          <mxGeometry x="394" y="430" width="10" height="10" as="geometry" />
        </mxCell>
        <mxCell id="DlKNlpENbQ6iREXl7qAN-14" value="Humano" style="whiteSpace=wrap;html=1;align=center;fillColor=#ffe6cc;strokeColor=#d79b00;" parent="1" vertex="1">
          <mxGeometry x="160" y="280" width="100" height="40" as="geometry" />
        </mxCell>
        <mxCell id="DlKNlpENbQ6iREXl7qAN-16" value="Vulcano" style="whiteSpace=wrap;html=1;align=center;fillColor=#ffe6cc;strokeColor=#d79b00;" parent="1" vertex="1">
          <mxGeometry x="349" y="280" width="100" height="40" as="geometry" />
        </mxCell>
        <mxCell id="DlKNlpENbQ6iREXl7qAN-18" value="Klingon" style="whiteSpace=wrap;html=1;align=center;fillColor=#ffe6cc;strokeColor=#d79b00;" parent="1" vertex="1">
          <mxGeometry x="540" y="280" width="100" height="40" as="geometry" />
        </mxCell>
        <mxCell id="DlKNlpENbQ6iREXl7qAN-20" value="" style="shape=requiredInterface;html=1;verticalLabelPosition=bottom;sketch=0;rotation=-90;" parent="1" vertex="1">
          <mxGeometry x="387.6" y="300" width="22.81" height="173.04" as="geometry" />
        </mxCell>
        <mxCell id="DlKNlpENbQ6iREXl7qAN-22" value="1:1" style="text;html=1;align=center;verticalAlign=middle;resizable=0;points=[];autosize=1;strokeColor=none;fillColor=none;" parent="1" vertex="1">
          <mxGeometry x="-25" y="560" width="40" height="30" as="geometry" />
        </mxCell>
        <mxCell id="DlKNlpENbQ6iREXl7qAN-23" value="1:1" style="text;html=1;align=center;verticalAlign=middle;resizable=0;points=[];autosize=1;strokeColor=none;fillColor=none;" parent="1" vertex="1">
          <mxGeometry x="309" y="560" width="40" height="30" as="geometry" />
        </mxCell>
        <mxCell id="DlKNlpENbQ6iREXl7qAN-24" value="1:1" style="text;html=1;align=center;verticalAlign=middle;resizable=0;points=[];autosize=1;strokeColor=none;fillColor=none;rotation=0;" parent="1" vertex="1">
          <mxGeometry x="139" y="530" width="40" height="30" as="geometry" />
        </mxCell>
        <mxCell id="DlKNlpENbQ6iREXl7qAN-27" style="edgeStyle=orthogonalEdgeStyle;rounded=0;orthogonalLoop=1;jettySize=auto;html=1;exitX=0.5;exitY=0;exitDx=0;exitDy=0;entryX=0.5;entryY=1;entryDx=0;entryDy=0;endArrow=none;endFill=0;" parent="1" source="DlKNlpENbQ6iREXl7qAN-25" target="DlKNlpENbQ6iREXl7qAN-26" edge="1">
          <mxGeometry relative="1" as="geometry" />
        </mxCell>
        <mxCell id="DlKNlpENbQ6iREXl7qAN-25" value="Capítulo" style="whiteSpace=wrap;html=1;align=center;fillColor=#ffe6cc;strokeColor=#d79b00;" parent="1" vertex="1">
          <mxGeometry x="349" y="980" width="100" height="40" as="geometry" />
        </mxCell>
        <mxCell id="DlKNlpENbQ6iREXl7qAN-28" style="edgeStyle=orthogonalEdgeStyle;rounded=0;orthogonalLoop=1;jettySize=auto;html=1;entryX=0.5;entryY=1;entryDx=0;entryDy=0;endArrow=none;endFill=0;" parent="1" source="DlKNlpENbQ6iREXl7qAN-26" target="DlKNlpENbQ6iREXl7qAN-1" edge="1">
          <mxGeometry relative="1" as="geometry" />
        </mxCell>
        <mxCell id="DlKNlpENbQ6iREXl7qAN-26" value="Participa" style="shape=rhombus;perimeter=rhombusPerimeter;whiteSpace=wrap;html=1;align=center;fillColor=#dae8fc;strokeColor=#6c8ebf;" parent="1" vertex="1">
          <mxGeometry x="339" y="770" width="120" height="60" as="geometry" />
        </mxCell>
        <mxCell id="DlKNlpENbQ6iREXl7qAN-31" style="edgeStyle=orthogonalEdgeStyle;rounded=0;orthogonalLoop=1;jettySize=auto;html=1;entryX=0;entryY=0.5;entryDx=0;entryDy=0;endArrow=none;endFill=0;" parent="1" source="DlKNlpENbQ6iREXl7qAN-29" target="DlKNlpENbQ6iREXl7qAN-25" edge="1">
          <mxGeometry relative="1" as="geometry" />
        </mxCell>
        <mxCell id="DlKNlpENbQ6iREXl7qAN-32" style="edgeStyle=orthogonalEdgeStyle;rounded=0;orthogonalLoop=1;jettySize=auto;html=1;entryX=1;entryY=0.5;entryDx=0;entryDy=0;endArrow=none;endFill=0;" parent="1" source="DlKNlpENbQ6iREXl7qAN-29" target="DlKNlpENbQ6iREXl7qAN-30" edge="1">
          <mxGeometry relative="1" as="geometry" />
        </mxCell>
        <mxCell id="DlKNlpENbQ6iREXl7qAN-29" value="Aparece" style="shape=rhombus;perimeter=rhombusPerimeter;whiteSpace=wrap;html=1;align=center;fillColor=#dae8fc;strokeColor=#6c8ebf;" parent="1" vertex="1">
          <mxGeometry x="99" y="970" width="120" height="60" as="geometry" />
        </mxCell>
        <mxCell id="DlKNlpENbQ6iREXl7qAN-30" value="Planeta" style="whiteSpace=wrap;html=1;align=center;fillColor=#ffe6cc;strokeColor=#d79b00;" parent="1" vertex="1">
          <mxGeometry x="-131" y="980" width="100" height="40" as="geometry" />
        </mxCell>
        <mxCell id="DlKNlpENbQ6iREXl7qAN-37" style="edgeStyle=orthogonalEdgeStyle;rounded=0;orthogonalLoop=1;jettySize=auto;html=1;entryX=0;entryY=0.5;entryDx=0;entryDy=0;endArrow=none;endFill=0;" parent="1" source="DlKNlpENbQ6iREXl7qAN-34" target="DlKNlpENbQ6iREXl7qAN-35" edge="1">
          <mxGeometry relative="1" as="geometry" />
        </mxCell>
        <mxCell id="DlKNlpENbQ6iREXl7qAN-34" value="Nave" style="whiteSpace=wrap;html=1;align=center;fillColor=#ffe6cc;strokeColor=#d79b00;" parent="1" vertex="1">
          <mxGeometry x="-610" y="980" width="100" height="40" as="geometry" />
        </mxCell>
        <mxCell id="DlKNlpENbQ6iREXl7qAN-36" style="edgeStyle=orthogonalEdgeStyle;rounded=0;orthogonalLoop=1;jettySize=auto;html=1;entryX=0;entryY=0.5;entryDx=0;entryDy=0;endArrow=none;endFill=0;" parent="1" source="DlKNlpENbQ6iREXl7qAN-35" target="DlKNlpENbQ6iREXl7qAN-30" edge="1">
          <mxGeometry relative="1" as="geometry" />
        </mxCell>
        <mxCell id="DlKNlpENbQ6iREXl7qAN-35" value="Viaja" style="shape=rhombus;perimeter=rhombusPerimeter;whiteSpace=wrap;html=1;align=center;fillColor=#dae8fc;strokeColor=#6c8ebf;" parent="1" vertex="1">
          <mxGeometry x="-380" y="970" width="120" height="60" as="geometry" />
        </mxCell>
        <mxCell id="DlKNlpENbQ6iREXl7qAN-39" style="edgeStyle=orthogonalEdgeStyle;rounded=0;orthogonalLoop=1;jettySize=auto;html=1;entryX=0.5;entryY=0;entryDx=0;entryDy=0;endArrow=none;endFill=0;" parent="1" source="DlKNlpENbQ6iREXl7qAN-38" target="DlKNlpENbQ6iREXl7qAN-4" edge="1">
          <mxGeometry relative="1" as="geometry" />
        </mxCell>
        <mxCell id="DlKNlpENbQ6iREXl7qAN-38" value="Nombre" style="ellipse;whiteSpace=wrap;html=1;align=center;fillColor=#d5e8d4;strokeColor=#82b366;" parent="1" vertex="1">
          <mxGeometry x="-131" y="415" width="100" height="40" as="geometry" />
        </mxCell>
        <mxCell id="DlKNlpENbQ6iREXl7qAN-41" style="edgeStyle=orthogonalEdgeStyle;rounded=0;orthogonalLoop=1;jettySize=auto;html=1;entryX=0;entryY=0.5;entryDx=0;entryDy=0;endArrow=none;endFill=0;" parent="1" source="DlKNlpENbQ6iREXl7qAN-40" target="DlKNlpENbQ6iREXl7qAN-4" edge="1">
          <mxGeometry relative="1" as="geometry" />
        </mxCell>
        <mxCell id="DlKNlpENbQ6iREXl7qAN-40" value="Fecha de nacimiento" style="ellipse;whiteSpace=wrap;html=1;align=center;fillColor=#d5e8d4;strokeColor=#82b366;" parent="1" vertex="1">
          <mxGeometry x="-300" y="570" width="100" height="40" as="geometry" />
        </mxCell>
        <mxCell id="DlKNlpENbQ6iREXl7qAN-43" style="edgeStyle=orthogonalEdgeStyle;rounded=0;orthogonalLoop=1;jettySize=auto;html=1;entryX=0.5;entryY=1;entryDx=0;entryDy=0;endArrow=none;endFill=0;" parent="1" source="DlKNlpENbQ6iREXl7qAN-42" target="DlKNlpENbQ6iREXl7qAN-4" edge="1">
          <mxGeometry relative="1" as="geometry" />
        </mxCell>
        <mxCell id="DlKNlpENbQ6iREXl7qAN-42" value="Nacionalidad" style="ellipse;whiteSpace=wrap;html=1;align=center;fillColor=#d5e8d4;strokeColor=#82b366;" parent="1" vertex="1">
          <mxGeometry x="-131" y="730" width="100" height="40" as="geometry" />
        </mxCell>
        <mxCell id="DlKNlpENbQ6iREXl7qAN-45" style="edgeStyle=orthogonalEdgeStyle;rounded=0;orthogonalLoop=1;jettySize=auto;html=1;exitX=1;exitY=0.5;exitDx=0;exitDy=0;entryX=0.25;entryY=0;entryDx=0;entryDy=0;endArrow=none;endFill=0;" parent="1" source="DlKNlpENbQ6iREXl7qAN-44" target="DlKNlpENbQ6iREXl7qAN-4" edge="1">
          <mxGeometry relative="1" as="geometry" />
        </mxCell>
        <mxCell id="DlKNlpENbQ6iREXl7qAN-44" value="ID" style="ellipse;whiteSpace=wrap;html=1;align=center;fontStyle=4;fillColor=#fff2cc;strokeColor=#d6b656;" parent="1" vertex="1">
          <mxGeometry x="-260" y="460" width="100" height="40" as="geometry" />
        </mxCell>
        <mxCell id="DlKNlpENbQ6iREXl7qAN-47" style="edgeStyle=orthogonalEdgeStyle;rounded=0;orthogonalLoop=1;jettySize=auto;html=1;entryX=0.75;entryY=1;entryDx=0;entryDy=0;endArrow=none;endFill=0;" parent="1" source="DlKNlpENbQ6iREXl7qAN-46" target="DlKNlpENbQ6iREXl7qAN-1" edge="1">
          <mxGeometry relative="1" as="geometry" />
        </mxCell>
        <mxCell id="DlKNlpENbQ6iREXl7qAN-46" value="Nombre" style="ellipse;whiteSpace=wrap;html=1;align=center;fillColor=#d5e8d4;strokeColor=#82b366;" parent="1" vertex="1">
          <mxGeometry x="459" y="660" width="100" height="40" as="geometry" />
        </mxCell>
        <mxCell id="DlKNlpENbQ6iREXl7qAN-49" style="edgeStyle=orthogonalEdgeStyle;rounded=0;orthogonalLoop=1;jettySize=auto;html=1;entryX=0.25;entryY=1;entryDx=0;entryDy=0;endArrow=none;endFill=0;" parent="1" source="DlKNlpENbQ6iREXl7qAN-48" target="DlKNlpENbQ6iREXl7qAN-1" edge="1">
          <mxGeometry relative="1" as="geometry" />
        </mxCell>
        <mxCell id="DlKNlpENbQ6iREXl7qAN-48" value="Graduación militar" style="whiteSpace=wrap;html=1;align=center;fillColor=#d5e8d4;strokeColor=#82b366;shape=ellipse;margin=3;perimeter=ellipsePerimeter;" parent="1" vertex="1">
          <mxGeometry x="250" y="650" width="89" height="50" as="geometry" />
        </mxCell>
        <mxCell id="DlKNlpENbQ6iREXl7qAN-51" style="edgeStyle=orthogonalEdgeStyle;rounded=0;orthogonalLoop=1;jettySize=auto;html=1;entryX=0;entryY=0.5;entryDx=0;entryDy=0;endArrow=none;endFill=0;" parent="1" source="DlKNlpENbQ6iREXl7qAN-50" target="DlKNlpENbQ6iREXl7qAN-14" edge="1">
          <mxGeometry relative="1" as="geometry" />
        </mxCell>
        <mxCell id="DlKNlpENbQ6iREXl7qAN-50" value="Fecha de nacimiento" style="ellipse;whiteSpace=wrap;html=1;align=center;fillColor=#d5e8d4;strokeColor=#82b366;" parent="1" vertex="1">
          <mxGeometry y="170" width="100" height="40" as="geometry" />
        </mxCell>
        <mxCell id="DlKNlpENbQ6iREXl7qAN-55" style="edgeStyle=orthogonalEdgeStyle;rounded=0;orthogonalLoop=1;jettySize=auto;html=1;exitX=0.5;exitY=1;exitDx=0;exitDy=0;entryX=0.5;entryY=0;entryDx=0;entryDy=0;endArrow=none;endFill=0;" parent="1" source="DlKNlpENbQ6iREXl7qAN-52" target="DlKNlpENbQ6iREXl7qAN-14" edge="1">
          <mxGeometry relative="1" as="geometry" />
        </mxCell>
        <mxCell id="DlKNlpENbQ6iREXl7qAN-52" value="Ciudad terráquea de nacimiento" style="ellipse;whiteSpace=wrap;html=1;align=center;fillColor=#d5e8d4;strokeColor=#82b366;" parent="1" vertex="1">
          <mxGeometry x="155.5" y="120" width="109" height="50" as="geometry" />
        </mxCell>
        <mxCell id="DlKNlpENbQ6iREXl7qAN-57" style="edgeStyle=orthogonalEdgeStyle;rounded=0;orthogonalLoop=1;jettySize=auto;html=1;entryX=0.25;entryY=0;entryDx=0;entryDy=0;endArrow=none;endFill=0;" parent="1" source="DlKNlpENbQ6iREXl7qAN-56" target="DlKNlpENbQ6iREXl7qAN-16" edge="1">
          <mxGeometry relative="1" as="geometry" />
        </mxCell>
        <mxCell id="DlKNlpENbQ6iREXl7qAN-56" value="Nombre de mento" style="ellipse;whiteSpace=wrap;html=1;align=center;fillColor=#d5e8d4;strokeColor=#82b366;" parent="1" vertex="1">
          <mxGeometry x="274.5" y="110" width="109" height="50" as="geometry" />
        </mxCell>
        <mxCell id="DlKNlpENbQ6iREXl7qAN-59" style="edgeStyle=orthogonalEdgeStyle;rounded=0;orthogonalLoop=1;jettySize=auto;html=1;entryX=0.75;entryY=0;entryDx=0;entryDy=0;endArrow=none;endFill=0;" parent="1" source="DlKNlpENbQ6iREXl7qAN-58" target="DlKNlpENbQ6iREXl7qAN-16" edge="1">
          <mxGeometry relative="1" as="geometry" />
        </mxCell>
        <mxCell id="DlKNlpENbQ6iREXl7qAN-58" value="Fecha de graduación" style="ellipse;whiteSpace=wrap;html=1;align=center;fillColor=#d5e8d4;strokeColor=#82b366;" parent="1" vertex="1">
          <mxGeometry x="414" y="110" width="109" height="50" as="geometry" />
        </mxCell>
        <mxCell id="DlKNlpENbQ6iREXl7qAN-62" style="edgeStyle=orthogonalEdgeStyle;rounded=0;orthogonalLoop=1;jettySize=auto;html=1;entryX=0.5;entryY=0;entryDx=0;entryDy=0;endArrow=none;endFill=0;" parent="1" source="DlKNlpENbQ6iREXl7qAN-60" target="DlKNlpENbQ6iREXl7qAN-18" edge="1">
          <mxGeometry relative="1" as="geometry" />
        </mxCell>
        <mxCell id="DlKNlpENbQ6iREXl7qAN-60" value="Planeta natal" style="ellipse;whiteSpace=wrap;html=1;align=center;fillColor=#d5e8d4;strokeColor=#82b366;" parent="1" vertex="1">
          <mxGeometry x="535.5" y="110" width="109" height="50" as="geometry" />
        </mxCell>
        <mxCell id="DlKNlpENbQ6iREXl7qAN-63" style="edgeStyle=orthogonalEdgeStyle;rounded=0;orthogonalLoop=1;jettySize=auto;html=1;entryX=1;entryY=0.5;entryDx=0;entryDy=0;endArrow=none;endFill=0;" parent="1" source="DlKNlpENbQ6iREXl7qAN-61" target="DlKNlpENbQ6iREXl7qAN-18" edge="1">
          <mxGeometry relative="1" as="geometry" />
        </mxCell>
        <mxCell id="DlKNlpENbQ6iREXl7qAN-61" value="Último combate" style="ellipse;whiteSpace=wrap;html=1;align=center;fillColor=#d5e8d4;strokeColor=#82b366;" parent="1" vertex="1">
          <mxGeometry x="700" y="160" width="109" height="50" as="geometry" />
        </mxCell>
        <mxCell id="DlKNlpENbQ6iREXl7qAN-65" style="edgeStyle=orthogonalEdgeStyle;rounded=0;orthogonalLoop=1;jettySize=auto;html=1;entryX=1;entryY=0.5;entryDx=0;entryDy=0;endArrow=none;endFill=0;" parent="1" source="DlKNlpENbQ6iREXl7qAN-64" target="DlKNlpENbQ6iREXl7qAN-25" edge="1">
          <mxGeometry relative="1" as="geometry" />
        </mxCell>
        <mxCell id="DlKNlpENbQ6iREXl7qAN-64" value="Temporada" style="ellipse;whiteSpace=wrap;html=1;align=center;fillColor=#d5e8d4;strokeColor=#82b366;" parent="1" vertex="1">
          <mxGeometry x="490" y="880" width="109" height="45" as="geometry" />
        </mxCell>
        <mxCell id="DlKNlpENbQ6iREXl7qAN-68" style="edgeStyle=orthogonalEdgeStyle;rounded=0;orthogonalLoop=1;jettySize=auto;html=1;entryX=1;entryY=0.75;entryDx=0;entryDy=0;endArrow=none;endFill=0;" parent="1" source="DlKNlpENbQ6iREXl7qAN-67" target="DlKNlpENbQ6iREXl7qAN-25" edge="1">
          <mxGeometry relative="1" as="geometry" />
        </mxCell>
        <mxCell id="DlKNlpENbQ6iREXl7qAN-67" value="Título" style="ellipse;whiteSpace=wrap;html=1;align=center;fillColor=#d5e8d4;strokeColor=#82b366;" parent="1" vertex="1">
          <mxGeometry x="599" y="950" width="109" height="45" as="geometry" />
        </mxCell>
        <mxCell id="DlKNlpENbQ6iREXl7qAN-70" style="edgeStyle=orthogonalEdgeStyle;rounded=0;orthogonalLoop=1;jettySize=auto;html=1;entryX=0.75;entryY=1;entryDx=0;entryDy=0;endArrow=none;endFill=0;exitX=0.5;exitY=0;exitDx=0;exitDy=0;" parent="1" source="DlKNlpENbQ6iREXl7qAN-69" target="DlKNlpENbQ6iREXl7qAN-25" edge="1">
          <mxGeometry relative="1" as="geometry">
            <mxPoint x="374" y="1120" as="sourcePoint" />
          </mxGeometry>
        </mxCell>
        <mxCell id="DlKNlpENbQ6iREXl7qAN-69" value="Orden de rodaje" style="ellipse;whiteSpace=wrap;html=1;align=center;fillColor=#d5e8d4;strokeColor=#82b366;" parent="1" vertex="1">
          <mxGeometry x="570" y="1070" width="109" height="45" as="geometry" />
        </mxCell>
        <mxCell id="DlKNlpENbQ6iREXl7qAN-73" style="edgeStyle=orthogonalEdgeStyle;rounded=0;orthogonalLoop=1;jettySize=auto;html=1;entryX=0.5;entryY=1;entryDx=0;entryDy=0;endArrow=none;endFill=0;" parent="1" source="DlKNlpENbQ6iREXl7qAN-72" target="DlKNlpENbQ6iREXl7qAN-25" edge="1">
          <mxGeometry relative="1" as="geometry" />
        </mxCell>
        <mxCell id="DlKNlpENbQ6iREXl7qAN-72" value="Fecha de primera emisión en televisión" style="ellipse;whiteSpace=wrap;html=1;align=center;fillColor=#d5e8d4;strokeColor=#82b366;" parent="1" vertex="1">
          <mxGeometry x="400" y="1110" width="123" height="50" as="geometry" />
        </mxCell>
        <mxCell id="DlKNlpENbQ6iREXl7qAN-75" style="edgeStyle=orthogonalEdgeStyle;rounded=0;orthogonalLoop=1;jettySize=auto;html=1;entryX=0.5;entryY=0;entryDx=0;entryDy=0;endArrow=none;endFill=0;" parent="1" source="DlKNlpENbQ6iREXl7qAN-74" target="DlKNlpENbQ6iREXl7qAN-3" edge="1">
          <mxGeometry relative="1" as="geometry" />
        </mxCell>
        <mxCell id="DlKNlpENbQ6iREXl7qAN-74" value="Película proyectada en cines" style="ellipse;whiteSpace=wrap;html=1;align=center;fillColor=#d5e8d4;strokeColor=#82b366;" parent="1" vertex="1">
          <mxGeometry x="859" y="390" width="100" height="50" as="geometry" />
        </mxCell>
        <mxCell id="DlKNlpENbQ6iREXl7qAN-77" style="edgeStyle=orthogonalEdgeStyle;rounded=0;orthogonalLoop=1;jettySize=auto;html=1;entryX=0.75;entryY=0;entryDx=0;entryDy=0;endArrow=none;endFill=0;" parent="1" source="DlKNlpENbQ6iREXl7qAN-76" target="DlKNlpENbQ6iREXl7qAN-3" edge="1">
          <mxGeometry relative="1" as="geometry">
            <Array as="points">
              <mxPoint x="1060" y="480" />
              <mxPoint x="934" y="480" />
            </Array>
          </mxGeometry>
        </mxCell>
        <mxCell id="DlKNlpENbQ6iREXl7qAN-76" value="Año de lanzamiento" style="ellipse;whiteSpace=wrap;html=1;align=center;fillColor=#d5e8d4;strokeColor=#82b366;" parent="1" vertex="1">
          <mxGeometry x="1010" y="420" width="100" height="45" as="geometry" />
        </mxCell>
        <mxCell id="DlKNlpENbQ6iREXl7qAN-80" style="edgeStyle=orthogonalEdgeStyle;rounded=0;orthogonalLoop=1;jettySize=auto;html=1;entryX=0.5;entryY=1;entryDx=0;entryDy=0;endArrow=none;endFill=0;" parent="1" source="DlKNlpENbQ6iREXl7qAN-79" target="DlKNlpENbQ6iREXl7qAN-3" edge="1">
          <mxGeometry relative="1" as="geometry" />
        </mxCell>
        <mxCell id="DlKNlpENbQ6iREXl7qAN-79" value="Director" style="ellipse;whiteSpace=wrap;html=1;align=center;fillColor=#d5e8d4;strokeColor=#82b366;" parent="1" vertex="1">
          <mxGeometry x="863.5" y="720" width="91" height="40" as="geometry" />
        </mxCell>
        <mxCell id="DlKNlpENbQ6iREXl7qAN-82" style="edgeStyle=orthogonalEdgeStyle;rounded=0;orthogonalLoop=1;jettySize=auto;html=1;entryX=1;entryY=0.5;entryDx=0;entryDy=0;endArrow=none;endFill=0;" parent="1" source="DlKNlpENbQ6iREXl7qAN-81" target="DlKNlpENbQ6iREXl7qAN-3" edge="1">
          <mxGeometry relative="1" as="geometry" />
        </mxCell>
        <mxCell id="DlKNlpENbQ6iREXl7qAN-81" value="Título" style="ellipse;whiteSpace=wrap;html=1;align=center;fillColor=#d5e8d4;strokeColor=#82b366;" parent="1" vertex="1">
          <mxGeometry x="1070" y="570" width="100" height="40" as="geometry" />
        </mxCell>
        <mxCell id="DlKNlpENbQ6iREXl7qAN-84" style="edgeStyle=orthogonalEdgeStyle;rounded=0;orthogonalLoop=1;jettySize=auto;html=1;entryX=0.75;entryY=0;entryDx=0;entryDy=0;endArrow=none;endFill=0;" parent="1" source="DlKNlpENbQ6iREXl7qAN-83" target="DlKNlpENbQ6iREXl7qAN-1" edge="1">
          <mxGeometry relative="1" as="geometry" />
        </mxCell>
        <mxCell id="DlKNlpENbQ6iREXl7qAN-83" value="ID" style="ellipse;whiteSpace=wrap;html=1;align=center;fontStyle=4;fillColor=#fff2cc;strokeColor=#d6b656;" parent="1" vertex="1">
          <mxGeometry x="470" y="500" width="100" height="40" as="geometry" />
        </mxCell>
        <mxCell id="DlKNlpENbQ6iREXl7qAN-86" style="edgeStyle=orthogonalEdgeStyle;rounded=0;orthogonalLoop=1;jettySize=auto;html=1;entryX=0.75;entryY=1;entryDx=0;entryDy=0;exitX=0.5;exitY=0;exitDx=0;exitDy=0;endArrow=none;endFill=0;" parent="1" source="DlKNlpENbQ6iREXl7qAN-85" target="DlKNlpENbQ6iREXl7qAN-3" edge="1">
          <mxGeometry relative="1" as="geometry">
            <Array as="points">
              <mxPoint x="1080" y="700" />
              <mxPoint x="934" y="700" />
            </Array>
          </mxGeometry>
        </mxCell>
        <mxCell id="DlKNlpENbQ6iREXl7qAN-85" value="ID" style="ellipse;whiteSpace=wrap;html=1;align=center;fontStyle=4;fillColor=#fff2cc;strokeColor=#d6b656;" parent="1" vertex="1">
          <mxGeometry x="1030" y="710" width="100" height="40" as="geometry" />
        </mxCell>
        <mxCell id="DlKNlpENbQ6iREXl7qAN-89" style="edgeStyle=orthogonalEdgeStyle;rounded=0;orthogonalLoop=1;jettySize=auto;html=1;entryX=0.25;entryY=1;entryDx=0;entryDy=0;endArrow=none;endFill=0;" parent="1" source="DlKNlpENbQ6iREXl7qAN-88" target="DlKNlpENbQ6iREXl7qAN-25" edge="1">
          <mxGeometry relative="1" as="geometry" />
        </mxCell>
        <mxCell id="DlKNlpENbQ6iREXl7qAN-88" value="ID" style="whiteSpace=wrap;html=1;align=center;fillColor=#fff2cc;strokeColor=#d6b656;shape=ellipse;perimeter=ellipsePerimeter;fontStyle=4;" parent="1" vertex="1">
          <mxGeometry x="239" y="1090" width="100" height="40" as="geometry" />
        </mxCell>
        <mxCell id="y-hyt4ERYZjtCRCO4iPL-4" style="edgeStyle=orthogonalEdgeStyle;rounded=0;orthogonalLoop=1;jettySize=auto;html=1;exitX=1;exitY=1;exitDx=0;exitDy=0;entryX=0.25;entryY=0;entryDx=0;entryDy=0;endArrow=none;endFill=0;" edge="1" parent="1" source="DlKNlpENbQ6iREXl7qAN-90" target="DlKNlpENbQ6iREXl7qAN-3">
          <mxGeometry relative="1" as="geometry">
            <Array as="points">
              <mxPoint x="804" y="480" />
              <mxPoint x="884" y="480" />
            </Array>
          </mxGeometry>
        </mxCell>
        <mxCell id="DlKNlpENbQ6iREXl7qAN-90" value="Protagonista" style="ellipse;whiteSpace=wrap;html=1;align=center;fillColor=#d5e8d4;strokeColor=#82b366;" parent="1" vertex="1">
          <mxGeometry x="719" y="410" width="100" height="40" as="geometry" />
        </mxCell>
        <mxCell id="DlKNlpENbQ6iREXl7qAN-93" style="edgeStyle=orthogonalEdgeStyle;rounded=0;orthogonalLoop=1;jettySize=auto;html=1;entryX=0.5;entryY=1;entryDx=0;entryDy=0;endArrow=none;endFill=0;" parent="1" source="DlKNlpENbQ6iREXl7qAN-92" target="DlKNlpENbQ6iREXl7qAN-30" edge="1">
          <mxGeometry relative="1" as="geometry" />
        </mxCell>
        <mxCell id="DlKNlpENbQ6iREXl7qAN-92" value="Código de planeta" style="whiteSpace=wrap;html=1;align=center;fillColor=#fff2cc;strokeColor=#d6b656;shape=ellipse;perimeter=ellipsePerimeter;fontStyle=4;" parent="1" vertex="1">
          <mxGeometry x="-140" y="1115" width="120" height="40" as="geometry" />
        </mxCell>
        <mxCell id="DlKNlpENbQ6iREXl7qAN-95" style="edgeStyle=orthogonalEdgeStyle;rounded=0;orthogonalLoop=1;jettySize=auto;html=1;entryX=0.5;entryY=0;entryDx=0;entryDy=0;endArrow=none;endFill=0;" parent="1" source="DlKNlpENbQ6iREXl7qAN-94" target="DlKNlpENbQ6iREXl7qAN-30" edge="1">
          <mxGeometry relative="1" as="geometry" />
        </mxCell>
        <mxCell id="DlKNlpENbQ6iREXl7qAN-94" value="Nombre" style="ellipse;whiteSpace=wrap;html=1;align=center;fillColor=#d5e8d4;strokeColor=#82b366;" parent="1" vertex="1">
          <mxGeometry x="-131" y="830" width="100" height="40" as="geometry" />
        </mxCell>
        <mxCell id="DlKNlpENbQ6iREXl7qAN-97" style="edgeStyle=orthogonalEdgeStyle;rounded=0;orthogonalLoop=1;jettySize=auto;html=1;entryX=0.75;entryY=0;entryDx=0;entryDy=0;endArrow=none;endFill=0;" parent="1" source="DlKNlpENbQ6iREXl7qAN-96" target="DlKNlpENbQ6iREXl7qAN-30" edge="1">
          <mxGeometry relative="1" as="geometry" />
        </mxCell>
        <mxCell id="DlKNlpENbQ6iREXl7qAN-96" value="Galaxia" style="ellipse;whiteSpace=wrap;html=1;align=center;fillColor=#d5e8d4;strokeColor=#82b366;" parent="1" vertex="1">
          <mxGeometry y="870" width="100" height="40" as="geometry" />
        </mxCell>
        <mxCell id="DlKNlpENbQ6iREXl7qAN-99" style="edgeStyle=orthogonalEdgeStyle;rounded=0;orthogonalLoop=1;jettySize=auto;html=1;entryX=0.75;entryY=1;entryDx=0;entryDy=0;endArrow=none;endFill=0;" parent="1" source="DlKNlpENbQ6iREXl7qAN-98" target="DlKNlpENbQ6iREXl7qAN-30" edge="1">
          <mxGeometry relative="1" as="geometry" />
        </mxCell>
        <mxCell id="DlKNlpENbQ6iREXl7qAN-98" value="Problema a resolver" style="ellipse;whiteSpace=wrap;html=1;align=center;fillColor=#d5e8d4;strokeColor=#82b366;" parent="1" vertex="1">
          <mxGeometry y="1075" width="100" height="40" as="geometry" />
        </mxCell>
        <mxCell id="DlKNlpENbQ6iREXl7qAN-101" style="edgeStyle=orthogonalEdgeStyle;rounded=0;orthogonalLoop=1;jettySize=auto;html=1;entryX=0.5;entryY=0;entryDx=0;entryDy=0;endArrow=none;endFill=0;" parent="1" source="DlKNlpENbQ6iREXl7qAN-100" target="DlKNlpENbQ6iREXl7qAN-34" edge="1">
          <mxGeometry relative="1" as="geometry" />
        </mxCell>
        <mxCell id="DlKNlpENbQ6iREXl7qAN-100" value="Código" style="whiteSpace=wrap;html=1;align=center;fillColor=#fff2cc;strokeColor=#d6b656;shape=ellipse;perimeter=ellipsePerimeter;fontStyle=4;" parent="1" vertex="1">
          <mxGeometry x="-610" y="830" width="100" height="40" as="geometry" />
        </mxCell>
        <mxCell id="DlKNlpENbQ6iREXl7qAN-103" style="edgeStyle=orthogonalEdgeStyle;rounded=0;orthogonalLoop=1;jettySize=auto;html=1;entryX=0;entryY=0.5;entryDx=0;entryDy=0;endArrow=none;endFill=0;" parent="1" source="DlKNlpENbQ6iREXl7qAN-102" target="DlKNlpENbQ6iREXl7qAN-34" edge="1">
          <mxGeometry relative="1" as="geometry" />
        </mxCell>
        <mxCell id="DlKNlpENbQ6iREXl7qAN-102" value="Número de tripulantes" style="ellipse;whiteSpace=wrap;html=1;align=center;fillColor=#d5e8d4;strokeColor=#82b366;" parent="1" vertex="1">
          <mxGeometry x="-780" y="900" width="100" height="40" as="geometry" />
        </mxCell>
        <mxCell id="DlKNlpENbQ6iREXl7qAN-106" style="edgeStyle=orthogonalEdgeStyle;rounded=0;orthogonalLoop=1;jettySize=auto;html=1;entryX=0.25;entryY=1;entryDx=0;entryDy=0;endArrow=none;endFill=0;" parent="1" source="DlKNlpENbQ6iREXl7qAN-105" target="DlKNlpENbQ6iREXl7qAN-34" edge="1">
          <mxGeometry relative="1" as="geometry" />
        </mxCell>
        <mxCell id="DlKNlpENbQ6iREXl7qAN-105" value="Nombre" style="ellipse;whiteSpace=wrap;html=1;align=center;fillColor=#d5e8d4;strokeColor=#82b366;" parent="1" vertex="1">
          <mxGeometry x="-770" y="1070" width="100" height="40" as="geometry" />
        </mxCell>
        <mxCell id="DlKNlpENbQ6iREXl7qAN-107" value="Lanzadera" style="whiteSpace=wrap;html=1;align=center;fillColor=#ffe6cc;strokeColor=#d79b00;shape=ext;margin=3;double=1;" parent="1" vertex="1">
          <mxGeometry x="-610" y="1310" width="100" height="40" as="geometry" />
        </mxCell>
        <mxCell id="DlKNlpENbQ6iREXl7qAN-110" style="edgeStyle=orthogonalEdgeStyle;rounded=0;orthogonalLoop=1;jettySize=auto;html=1;endArrow=none;endFill=0;" parent="1" source="DlKNlpENbQ6iREXl7qAN-109" target="DlKNlpENbQ6iREXl7qAN-107" edge="1">
          <mxGeometry relative="1" as="geometry" />
        </mxCell>
        <mxCell id="DlKNlpENbQ6iREXl7qAN-109" value="Número de Lanzadera" style="ellipse;whiteSpace=wrap;html=1;align=center;fillColor=#d5e8d4;strokeColor=#82b366;" parent="1" vertex="1">
          <mxGeometry x="-610" y="1430" width="100" height="40" as="geometry" />
        </mxCell>
        <mxCell id="DlKNlpENbQ6iREXl7qAN-113" style="edgeStyle=orthogonalEdgeStyle;rounded=0;orthogonalLoop=1;jettySize=auto;html=1;entryX=1;entryY=0.5;entryDx=0;entryDy=0;endArrow=none;endFill=0;" parent="1" source="DlKNlpENbQ6iREXl7qAN-112" target="DlKNlpENbQ6iREXl7qAN-107" edge="1">
          <mxGeometry relative="1" as="geometry" />
        </mxCell>
        <mxCell id="DlKNlpENbQ6iREXl7qAN-112" value="Código de nave" style="whiteSpace=wrap;html=1;align=center;fillColor=#fff2cc;strokeColor=#d6b656;shape=ellipse;perimeter=ellipsePerimeter;fontStyle=4;" parent="1" vertex="1">
          <mxGeometry x="-440" y="1310" width="120" height="40" as="geometry" />
        </mxCell>
        <mxCell id="DlKNlpENbQ6iREXl7qAN-115" style="edgeStyle=orthogonalEdgeStyle;rounded=0;orthogonalLoop=1;jettySize=auto;html=1;entryX=0;entryY=0.5;entryDx=0;entryDy=0;endArrow=none;endFill=0;" parent="1" source="DlKNlpENbQ6iREXl7qAN-114" target="DlKNlpENbQ6iREXl7qAN-107" edge="1">
          <mxGeometry relative="1" as="geometry" />
        </mxCell>
        <mxCell id="DlKNlpENbQ6iREXl7qAN-114" value="Capacidad" style="ellipse;whiteSpace=wrap;html=1;align=center;fillColor=#d5e8d4;strokeColor=#82b366;" parent="1" vertex="1">
          <mxGeometry x="-780" y="1310" width="100" height="40" as="geometry" />
        </mxCell>
        <mxCell id="DlKNlpENbQ6iREXl7qAN-116" value="0:N" style="text;html=1;align=center;verticalAlign=middle;resizable=0;points=[];autosize=1;strokeColor=none;fillColor=none;" parent="1" vertex="1">
          <mxGeometry x="814" y="560" width="40" height="30" as="geometry" />
        </mxCell>
        <mxCell id="DlKNlpENbQ6iREXl7qAN-117" value="1:N" style="text;html=1;align=center;verticalAlign=middle;resizable=0;points=[];autosize=1;strokeColor=none;fillColor=none;" parent="1" vertex="1">
          <mxGeometry x="454" y="560" width="40" height="30" as="geometry" />
        </mxCell>
        <mxCell id="DlKNlpENbQ6iREXl7qAN-118" value="N:M" style="text;html=1;align=center;verticalAlign=middle;resizable=0;points=[];autosize=1;strokeColor=none;fillColor=none;" parent="1" vertex="1">
          <mxGeometry x="635" y="528" width="50" height="30" as="geometry" />
        </mxCell>
        <mxCell id="DlKNlpENbQ6iREXl7qAN-119" value="Raza" style="ellipse;whiteSpace=wrap;html=1;" parent="1" vertex="1">
          <mxGeometry x="314" y="390" width="30" height="30" as="geometry" />
        </mxCell>
        <mxCell id="DlKNlpENbQ6iREXl7qAN-120" style="edgeStyle=orthogonalEdgeStyle;rounded=0;orthogonalLoop=1;jettySize=auto;html=1;entryX=0;entryY=0;entryDx=44.25;entryDy=15;entryPerimeter=0;endArrow=none;endFill=0;" parent="1" source="DlKNlpENbQ6iREXl7qAN-119" edge="1">
          <mxGeometry relative="1" as="geometry">
            <mxPoint x="384.24999999999955" y="405" as="targetPoint" />
          </mxGeometry>
        </mxCell>
        <mxCell id="DlKNlpENbQ6iREXl7qAN-121" value="0:1" style="text;html=1;align=center;verticalAlign=middle;resizable=0;points=[];autosize=1;strokeColor=none;fillColor=none;" parent="1" vertex="1">
          <mxGeometry x="165" y="320" width="40" height="30" as="geometry" />
        </mxCell>
        <mxCell id="DlKNlpENbQ6iREXl7qAN-122" value="0:1" style="text;html=1;align=center;verticalAlign=middle;resizable=0;points=[];autosize=1;strokeColor=none;fillColor=none;" parent="1" vertex="1">
          <mxGeometry x="354" y="320" width="40" height="30" as="geometry" />
        </mxCell>
        <mxCell id="DlKNlpENbQ6iREXl7qAN-123" value="0:1" style="text;html=1;align=center;verticalAlign=middle;resizable=0;points=[];autosize=1;strokeColor=none;fillColor=none;" parent="1" vertex="1">
          <mxGeometry x="595" y="320" width="40" height="30" as="geometry" />
        </mxCell>
        <mxCell id="DlKNlpENbQ6iREXl7qAN-125" value="1:N" style="text;html=1;align=center;verticalAlign=middle;resizable=0;points=[];autosize=1;strokeColor=none;fillColor=none;" parent="1" vertex="1">
          <mxGeometry x="405" y="950" width="40" height="30" as="geometry" />
        </mxCell>
        <mxCell id="DlKNlpENbQ6iREXl7qAN-126" value="1:N" style="text;html=1;align=center;verticalAlign=middle;resizable=0;points=[];autosize=1;strokeColor=none;fillColor=none;" parent="1" vertex="1">
          <mxGeometry x="390" y="608" width="40" height="30" as="geometry" />
        </mxCell>
        <mxCell id="DlKNlpENbQ6iREXl7qAN-127" value="N:M" style="text;html=1;align=center;verticalAlign=middle;resizable=0;points=[];autosize=1;strokeColor=none;fillColor=none;" parent="1" vertex="1">
          <mxGeometry x="454" y="785" width="50" height="30" as="geometry" />
        </mxCell>
        <mxCell id="DlKNlpENbQ6iREXl7qAN-128" value="1:N" style="text;html=1;align=center;verticalAlign=middle;resizable=0;points=[];autosize=1;strokeColor=none;fillColor=none;" parent="1" vertex="1">
          <mxGeometry x="-25" y="970" width="40" height="30" as="geometry" />
        </mxCell>
        <mxCell id="DlKNlpENbQ6iREXl7qAN-129" value="0:N" style="text;html=1;align=center;verticalAlign=middle;resizable=0;points=[];autosize=1;strokeColor=none;fillColor=none;" parent="1" vertex="1">
          <mxGeometry x="304" y="970" width="40" height="30" as="geometry" />
        </mxCell>
        <mxCell id="DlKNlpENbQ6iREXl7qAN-131" value="N:M" style="text;html=1;align=center;verticalAlign=middle;resizable=0;points=[];autosize=1;strokeColor=none;fillColor=none;" parent="1" vertex="1">
          <mxGeometry x="134" y="940" width="50" height="30" as="geometry" />
        </mxCell>
        <mxCell id="DlKNlpENbQ6iREXl7qAN-135" style="edgeStyle=orthogonalEdgeStyle;rounded=0;orthogonalLoop=1;jettySize=auto;html=1;endArrow=none;endFill=0;" parent="1" source="DlKNlpENbQ6iREXl7qAN-134" target="DlKNlpENbQ6iREXl7qAN-34" edge="1">
          <mxGeometry relative="1" as="geometry" />
        </mxCell>
        <mxCell id="DlKNlpENbQ6iREXl7qAN-136" style="edgeStyle=orthogonalEdgeStyle;rounded=0;orthogonalLoop=1;jettySize=auto;html=1;entryX=0.5;entryY=0;entryDx=0;entryDy=0;endArrow=none;endFill=0;" parent="1" source="DlKNlpENbQ6iREXl7qAN-134" target="DlKNlpENbQ6iREXl7qAN-107" edge="1">
          <mxGeometry relative="1" as="geometry" />
        </mxCell>
        <mxCell id="DlKNlpENbQ6iREXl7qAN-134" value="Dispone" style="shape=rhombus;perimeter=rhombusPerimeter;whiteSpace=wrap;html=1;align=center;fillColor=#dae8fc;strokeColor=#6c8ebf;" parent="1" vertex="1">
          <mxGeometry x="-620" y="1140" width="120" height="60" as="geometry" />
        </mxCell>
        <mxCell id="DlKNlpENbQ6iREXl7qAN-137" value="1:1" style="text;html=1;align=center;verticalAlign=middle;resizable=0;points=[];autosize=1;strokeColor=none;fillColor=none;" parent="1" vertex="1">
          <mxGeometry x="-176" y="970" width="40" height="30" as="geometry" />
        </mxCell>
        <mxCell id="DlKNlpENbQ6iREXl7qAN-138" value="1:N" style="text;html=1;align=center;verticalAlign=middle;resizable=0;points=[];autosize=1;strokeColor=none;fillColor=none;" parent="1" vertex="1">
          <mxGeometry x="-505" y="970" width="40" height="30" as="geometry" />
        </mxCell>
        <mxCell id="DlKNlpENbQ6iREXl7qAN-139" value="0:1" style="text;html=1;align=center;verticalAlign=middle;resizable=0;points=[];autosize=1;strokeColor=none;fillColor=none;" parent="1" vertex="1">
          <mxGeometry x="-555" y="1280" width="40" height="30" as="geometry" />
        </mxCell>
        <mxCell id="y-hyt4ERYZjtCRCO4iPL-1" value="1:N" style="text;html=1;align=center;verticalAlign=middle;resizable=0;points=[];autosize=1;strokeColor=none;fillColor=none;" vertex="1" parent="1">
          <mxGeometry x="-340" y="928" width="40" height="30" as="geometry" />
        </mxCell>
        <mxCell id="y-hyt4ERYZjtCRCO4iPL-2" value="1:1" style="text;html=1;align=center;verticalAlign=middle;resizable=0;points=[];autosize=1;strokeColor=none;fillColor=none;" vertex="1" parent="1">
          <mxGeometry x="-555" y="1020" width="40" height="30" as="geometry" />
        </mxCell>
        <mxCell id="y-hyt4ERYZjtCRCO4iPL-3" value="1:1" style="text;html=1;align=center;verticalAlign=middle;resizable=0;points=[];autosize=1;strokeColor=none;fillColor=none;" vertex="1" parent="1">
          <mxGeometry x="184" y="420" width="40" height="30" as="geometry" />
        </mxCell>
        <mxCell id="y-hyt4ERYZjtCRCO4iPL-5" value="" style="triangle;whiteSpace=wrap;html=1;direction=north;" vertex="1" parent="1">
          <mxGeometry x="373.5" y="380" width="51" height="40" as="geometry" />
        </mxCell>
      </root>
    </mxGraphModel>
  </diagram>
</mxfile>
